<?xml version="1.0" encoding="UTF-8" standalone="no"?>
<svg width="512px" height="120px" viewBox="0 0 512 120" version="1.1" xmlns="http://www.w3.org/2000/svg" xmlns:xlink="http://www.w3.org/1999/xlink" xmlns:sketch="http://www.bohemiancoding.com/sketch/ns">
    <!-- Generator: Sketch 3.4 (15575) - http://www.bohemiancoding.com/sketch -->
    <title>nyansa-logo</title>
    <desc>Created with Sketch.</desc>
    <defs>
        <path id="path-1" d="M0,0.056673913 L462.349854,0.056673913 L462.349854,79 L0,79"></path>
        <path id="path-3" d="M0,0.056673913 L462.349854,0.056673913 L462.349854,79 L0,79"></path>
    </defs>
    <g id="Page-1" stroke="none" stroke-width="1" fill="none" fill-rule="evenodd" sketch:type="MSPage">
        <g id="nyansa-logo" sketch:type="MSArtboardGroup">
            <g id="nyansa-logo-container" sketch:type="MSLayerGroup" transform="translate(25.000000, 25.000000)">
                <path d="M142.55976,11.4931833 C128.408214,11.4931833 116.895024,23.0363428 116.895024,37.2237123 L116.895024,62.5145891 L122.939778,62.5145891 L122.939778,37.2237123 C122.939778,26.2730529 131.741356,17.3637993 142.55976,17.3637993 C153.378165,17.3637993 162.180315,26.2730529 162.180315,37.2237123 L162.180315,62.5145891 L168.225069,62.5145891 L168.225069,37.2237123 C168.225069,23.0363428 156.711879,11.4931833 142.55976,11.4931833" id="n" fill="#413D54" sketch:type="MSShapeGroup"></path>
                <path d="M326.517387,11.5510022 C312.365268,11.5510022 300.851505,23.0935891 300.851505,37.2815312 L300.851505,62.572408 L306.896832,62.572408 L306.896832,37.2815312 C306.896832,26.3308717 315.69841,17.4216181 326.517387,17.4216181 C337.335791,17.4216181 346.137942,26.3308717 346.137942,37.2815312 L346.137942,62.572408 L352.182696,62.572408 L352.182696,37.2815312 C352.182696,23.0935891 340.670078,11.5510022 326.517387,11.5510022" id="n" fill="#413D54" sketch:type="MSShapeGroup"></path>
                <path d="M222.547846,32.7567775 L222.530677,37.5872268 C222.3607,42.742263 220.24372,47.5675601 216.570053,51.172937 C212.888373,54.7857558 208.043184,56.7762123 202.927291,56.7762123 C192.108887,56.7762123 183.307309,47.8669587 183.307309,36.9162993 L183.307309,11.6254225 L177.261982,11.6254225 L177.261982,36.9162993 C177.261982,51.1048138 188.775745,62.6474007 202.927291,62.6474007 C210.47608,62.6474007 217.575604,59.3454297 222.47459,53.5721326 L222.38531,78.979792 L228.430636,78.9998283 L228.576003,37.5860819 L228.582871,37.3662558 C228.588022,37.2168428 228.593173,37.0668572 228.593173,36.9162993 L228.593173,11.6254225 L222.547846,11.6254225 L222.547846,32.7567775 Z" id="y" fill="#413D54" sketch:type="MSShapeGroup"></path>
                <path d="M283.31405,38.1719986 C282.733153,48.6125928 274.060345,56.7908101 263.569303,56.7908101 C252.66448,56.7908101 243.792507,47.9428101 243.792507,37.0677159 C243.792507,26.1920493 252.66448,17.3446217 263.569303,17.3446217 C268.706371,17.3446217 273.577314,19.3076 277.283603,22.8723319 C280.941818,26.3906942 283.081691,31.0923391 283.319773,36.127158 L283.31405,36.127158 L283.31405,38.1719986 Z M289.327899,36.127158 C289.085239,29.5340928 286.31754,23.3663681 281.522142,18.746013 C276.680959,14.0810058 270.305982,11.5123609 263.569303,11.5123609 C249.352513,11.5123609 237.78667,22.9765203 237.78667,37.0677159 C237.78667,51.1589116 249.352513,62.623071 263.569303,62.623071 C271.215385,62.623071 278.387592,59.2959116 283.31405,53.4796797 L283.31405,62.5732667 L289.359376,62.5732667 L289.359376,36.2794333 L289.33305,36.127158 L289.327899,36.127158 Z" id="a" fill="#413D54" sketch:type="MSShapeGroup"></path>
                <path d="M456.304127,38.1719986 C455.723803,48.6125928 447.050995,56.7908101 436.559953,56.7908101 C425.654557,56.7908101 416.782585,47.9428101 416.782585,37.0677159 C416.782585,26.1920493 425.654557,17.3446217 436.559953,17.3446217 C441.697593,17.3446217 446.567392,19.3076 450.274253,22.8723319 C453.931896,26.3906942 456.072341,31.0923391 456.310423,36.127158 L456.304127,36.127158 L456.304127,38.1719986 Z M454.51222,18.746013 C449.671037,14.0810058 443.296059,11.5123609 436.559953,11.5123609 C422.342591,11.5123609 410.776748,22.9765203 410.776748,37.0677159 C410.776748,51.1589116 422.342591,62.623071 436.559953,62.623071 C444.205462,62.623071 451.37767,59.2959116 456.304127,53.4796797 L456.304127,62.5732667 L462.349454,62.5732667 L462.349454,36.127158 L462.318549,36.127158 C462.075316,29.5340928 459.307618,23.3663681 454.51222,18.746013 L454.51222,18.746013 Z" id="a" fill="#413D54" sketch:type="MSShapeGroup"></path>
                <path d="M400.083451,38.0003739 C396.264989,33.9982797 389.610723,32.2007435 381.349406,32.9386493 C373.240325,33.661671 369.979866,32.0673594 368.672134,30.6024246 C367.580736,29.380787 367.277984,27.5374536 367.771316,25.1233739 C368.193682,23.0584971 369.76296,21.1493304 372.191278,19.7473667 C376.47274,17.2737507 382.411616,16.8306638 387.687756,18.5898449 C392.659426,20.2477 394.995029,23.3933884 396.078415,25.7404899 L396.17628,25.9534464 L401.99955,24.8720623 L401.871352,24.5354536 C401.704809,24.0940841 401.521097,23.6561493 401.324794,23.233671 C399.763529,19.8698739 396.450417,15.3766058 389.528882,13.0690043 C382.718948,10.798613 374.961265,11.4266058 369.281646,14.7068232 C365.392789,16.9525986 362.831123,20.2379681 362.070521,23.9572652 C361.201752,28.2100986 361.984102,31.8481058 364.331724,34.4791493 C367.571007,38.1062797 373.306713,39.4990841 381.866204,38.7354174 C388.237175,38.1681058 393.343338,39.3645551 395.8741,42.0184971 C397.257949,43.4685478 397.810802,45.2907 397.518923,47.4345768 C397.115443,50.3810478 395.20564,52.3365841 393.674134,53.458613 C390.089747,56.0845043 384.736346,57.0977652 379.34975,56.1680841 C374.770686,55.3775116 368.866148,53.2490913 366.737722,47.6011638 L366.649013,47.3653087 L360.975689,48.418642 L361.077561,48.7426565 C362.607349,53.6492435 366.847605,59.9154319 378.360223,61.9030261 C379.963268,62.1795261 381.593783,62.3203522 383.209991,62.3203522 L383.215142,62.3203522 C388.509595,62.3203522 393.444637,60.8405333 397.11201,58.1545333 C400.611694,55.5904681 402.746416,52.1556855 403.283244,48.222287 C403.812633,44.3478522 402.67545,40.717287 400.083451,38.0003739" id="s" fill="#413D54" sketch:type="MSShapeGroup"></path>
                <g id="mark-serif" transform="translate(0.572311, 0.000000)">
                    <mask id="mask-2" sketch:name="Clip 14" fill="white">
                        <use xlink:href="#path-1"></use>
                    </mask>
                    <g id="Clip-14"></g>
                    <path d="M86.9524874,52.5872659 C86.9524874,52.5872659 98.6579744,23.6131572 72.0535022,3.38057029 C58.0404553,-5.55616159 52.2995986,5.70706304 52.1851363,11.6360703 C52.0712464,17.5645051 58.3472142,22.5042949 65.9732649,24.1049036 C78.3695319,26.706179 87.5991994,31.0002297 86.9524874,52.5872659" id="Fill-13" fill="#8166AC" sketch:type="MSShapeGroup" mask="url(#mask-2)"></path>
                </g>
                <g id="mark-wave">
                    <mask id="mask-4" sketch:name="Clip 17" fill="white">
                        <use xlink:href="#path-3"></use>
                    </mask>
                    <g id="Clip-17"></g>
                    <path d="M73.1586357,33.8402225 C80.5637742,37.6556935 89.9554058,63.4738094 71.7043922,70.4555775 C56.7933885,76.1596065 42.1879991,52.8219761 32.233213,42.4918674 C16.4522958,26.1159688 -1.30195142,39.9323819 3.84255661,54.7214109 C3.84255661,54.7214109 -5.49356082,35.4190775 4.93910544,16.7080993 C14.6666839,-0.739451449 27.8590362,1.83148333 34.1052439,5.26454855 C46.6400103,12.1535775 51.5504429,37.3099254 64.6191759,40.3170775 C74.0709002,42.4918674 73.1586357,33.8402225 73.1586357,33.8402225" id="Fill-16" fill="#413D54" sketch:type="MSShapeGroup" mask="url(#mask-4)"></path>
                </g>
            </g>
        </g>
    </g>
</svg>